<svg width="54" height="46" viewBox="0 0 54 46" fill="none" xmlns="http://www.w3.org/2000/svg">
<rect width="54" height="46" rx="8" fill="black"/>
<path d="M36.9234 13V15H35.9425V18.2429C35.9425 19.4005 36.1889 20.5443 36.6647 21.5954L40.8643 30.8714C41.2047 31.6236 40.8827 32.5148 40.1449 32.8619C39.9515 32.9529 39.7412 33 39.5283 33H26.4713C25.6587 33 25 32.3284 25 31.5C25 31.2829 25.0462 31.0685 25.1354 30.8714L29.3349 21.5954C29.8107 20.5443 30.0571 19.4005 30.0571 18.2429V15H29.0762V13H36.9234ZM33.9807 15H32.0189V19H33.9807V15Z" fill="white"/>
<rect x="7.5" y="7.5" width="39" height="31" rx="3.5" stroke="white" stroke-width="3"/>
<circle cx="18" cy="17" r="4" fill="white"/>
<path d="M17.1978 26.0479C17.6005 25.5218 18.3943 25.5257 18.7918 26.0558L22.8 31.4C23.2944 32.0592 22.824 33 22 33H13.9006C13.072 33 12.6029 32.0501 13.1065 31.3921L17.1978 26.0479Z" fill="white"/>
</svg>
